<?xml version="1.0" encoding="utf-8"?>
<!-- Generator: Adobe Illustrator 27.4.0, SVG Export Plug-In . SVG Version: 6.00 Build 0)  -->
<svg version="1.1" id="Layer_1" xmlns="http://www.w3.org/2000/svg" xmlns:xlink="http://www.w3.org/1999/xlink" x="0px" y="0px"
	 viewBox="0 0 54 36" style="enable-background:new 0 0 54 36;" xml:space="preserve">
<style type="text/css">
	.st0{fill:#6a6e73;}
</style>
<path id="Icon-_x2F_-IT-Optimization-_x2F_-Undefined" class="st0" d="M27.5,3C28.3,3,29,2.3,29,1.5S28.3,0,27.5,0S26,0.7,26,1.5
	c0,0.4,0.1,0.8,0.4,1.1C26.7,2.9,27.1,3,27.5,3z M5.2,30h44.7c0.3,0,0.6-0.1,0.8-0.3c0.2-0.2,0.3-0.5,0.3-0.8V1.1
	c0-0.3-0.1-0.6-0.3-0.8S50.2,0,49.8,0H33.1c-0.6,0-1.2,0.5-1.2,1.1s0.5,1.1,1.2,1.1h15.6v25.4H6.3V2.3h15.6c0.6,0,1.2-0.5,1.2-1.1
	S22.6,0,21.9,0H5.2C4.8,0,4.6,0.1,4.3,0.3S4,0.8,4,1.1v27.7c0,0.3,0.1,0.6,0.3,0.8C4.6,29.9,4.8,30,5.2,30L5.2,30z M52.9,33H1.1
	C0.5,33,0,33.7,0,34.5S0.5,36,1.1,36h51.7c0.6,0,1.1-0.7,1.1-1.5S53.5,33,52.9,33z M22.1,10.2v8.4h-2.4v-4.8c0-0.7-0.5-1.2-1.2-1.2
	s-1.2,0.5-1.2,1.2v4.8h-2.4v-2.4c0-0.7-0.5-1.2-1.2-1.2s-1.2,0.5-1.2,1.2v2.4h-1.2c-0.7,0-1.2,0.5-1.2,1.2s0.5,1.2,1.2,1.2h14.6
	c0.7,0,1.2-0.5,1.2-1.2s-0.5-1.2-1.2-1.2h-1.2v-8.4C24.6,9.5,24,9,23.4,9C22.7,9,22.1,9.5,22.1,10.2L22.1,10.2z M31.8,16.6h0.9
	c0.1,0.5,0.3,0.9,0.5,1.3l-0.6,0.6c-0.4,0.4-0.4,1.1,0,1.6c0.4,0.4,1.2,0.4,1.6,0l0.6-0.6c0.4,0.2,0.9,0.4,1.3,0.5v0.8
	c0,0.6,0.5,1.1,1.1,1.1s1.1-0.5,1.1-1.1V20c0.5-0.1,0.9-0.3,1.3-0.5l0.6,0.6c0.4,0.4,1.2,0.4,1.6,0c0.4-0.4,0.4-1.1,0-1.6l-0.6-0.6
	c0.3-0.4,0.4-0.8,0.5-1.3h0.8c0.6,0,1.1-0.5,1.1-1.1s-0.5-1.1-1.1-1.1h-1c-0.1-0.5-0.3-0.9-0.5-1.3l0.6-0.6c1.1-1-0.6-2.6-1.6-1.6
	l-0.6,0.6c-0.4-0.2-0.9-0.4-1.3-0.5v-0.8c0-0.6-0.5-1.1-1.1-1.1s-1.1,0.5-1.1,1.1V11c-0.5,0.1-0.9,0.3-1.3,0.5L34.2,11
	c-1-1-2.7,0.6-1.6,1.6l0.6,0.6c-0.3,0.4-0.4,0.8-0.5,1.3h-0.8c-0.6,0.1-0.9,0.5-0.9,1S31.3,16.5,31.8,16.6L31.8,16.6z M37.3,13
	c1.3,0.1,2.3,1.2,2.3,2.5s-1,2.4-2.3,2.5C36,17.9,35,16.8,35,15.5S36,13.1,37.3,13L37.3,13z"/>
</svg>
