<?xml version="1.0" encoding="UTF-8"?>
<svg id="a6882603-abcb-4b7e-b47d-aeb776542cb8" xmlns="http://www.w3.org/2000/svg" viewBox="0 0 36 36">
  <defs>
    <style>
      .cls-1 {
        fill: #6a6e73;
      }
    </style>
  </defs>
  <path class="cls-1" d="m18,9.62c.34,0,.62-.28.62-.62s-.28-.62-.62-.62c-.34,0-.62.28-.62.62,0,.34.26.61.6.62,0,0,.01,0,.02,0Z"/>
  <g>
    <path class="cls-1" d="m6,24.62h24c.34,0,.61-.26.62-.6,0,0,0-.01,0-.02v-15c0-.34-.26-.61-.6-.62,0,0-.01,0-.02,0h-9c-.34,0-.62.28-.62.62s.28.62.62.62h8.38v13.76H6.62v-13.76h8.38c.34,0,.62-.28.62-.62,0-.34-.28-.62-.62-.62H6c-.34,0-.61.26-.62.6,0,0,0,.01,0,.02v15c0,.34.26.61.6.62,0,0,.01,0,.02,0Z"/>
    <path class="cls-1" d="m32,26.38H4c-.34,0-.62.28-.62.62s.28.62.62.62h28c.34,0,.62-.28.62-.62,0-.34-.28-.62-.62-.62h0Z"/>
    <path class="cls-1" d="m15.12,14v4.38h-1.24v-2.5c0-.35-.28-.63-.63-.63s-.63.28-.63.63h0v2.5h-1.24v-1.26c0-.35-.28-.63-.63-.63s-.63.28-.63.63v1.26h-.62c-.34,0-.62.28-.62.62,0,.34.28.62.62.62h7.5c.34,0,.62-.28.62-.62,0-.34-.28-.62-.62-.62h-.62v-4.38c0-.35-.28-.63-.63-.63s-.63.28-.63.63h0Z"/>
    <path class="cls-1" d="m20.5,17.12h.5c.06.26.16.5.3.73l-.32.33c-.24.24-.24.64,0,.88s.64.24.88,0l.33-.32c.23.14.47.24.73.3v.46c0,.34.28.62.62.62.34,0,.62-.28.62-.62v-.5c.26-.06.5-.16.73-.3l.33.32c.24.24.64.24.88,0s.24-.64,0-.88h0l-.32-.33c.14-.23.24-.47.3-.73h.46c.34,0,.62-.28.62-.62,0-.34-.28-.62-.62-.62h-.54c-.06-.26-.16-.5-.3-.73l.32-.33c.58-.56-.32-1.46-.88-.88l-.33.32c-.23-.14-.47-.24-.73-.3v-.42c0-.34-.28-.62-.62-.62-.34,0-.62.28-.62.62v.5c-.26.06-.5.16-.73.3l-.33-.32c-.56-.58-1.46.32-.88.88l.32.33c-.14.23-.24.47-.3.73h-.42c-.33.09-.53.42-.44.76.06.22.23.39.44.44Zm3-2c.76.06,1.32.73,1.26,1.49-.06.67-.59,1.2-1.26,1.26-.76-.06-1.32-.73-1.26-1.49.06-.67.59-1.2,1.26-1.26Z"/>
  </g>
</svg>