<?xml version="1.0" encoding="utf-8"?>
<!-- Generator: Adobe Illustrator 22.1.0, SVG Export Plug-In . SVG Version: 6.00 Build 0)  -->
<svg version="1.1" id="Layer_1" xmlns="http://www.w3.org/2000/svg" xmlns:xlink="http://www.w3.org/1999/xlink" x="0px" y="0px"
	 viewBox="0 0 278 217" style="enable-background:new 0 0 278 217;" xml:space="preserve">
<style type="text/css">
	.st0{fill:#ED1C24;}
</style>
<path class="st0" d="M202.4,155.6c-0.8-0.8-1.9-1.5-3.5-1.5h-3.5c5.8-7.3,8.8-15.7,8.8-25.3c0-7.7-1.9-14.6-5.4-20.7
	c-3.8-6.1-8.8-11.1-15-15c-6.1-3.8-13-5.4-20.7-5.4s-14.6,1.9-20.7,5.4c-6.1,3.8-11.1,8.8-15,15c-3.8,6.1-5.4,13-5.4,20.7
	c0,7.7,1.9,14.6,5.4,20.7c3.8,6.1,8.8,11.1,15,15c6.1,3.8,13,5.4,20.7,5.4c9.6,0,18-3.1,25.3-8.8v3.1c0,1.2,0.4,2.3,1.5,3.5l23,22.3
	c0.8,0.8,1.9,1.5,3.5,1.5c1.2,0,2.3-0.4,3.5-1.5l5.4-5.4c0.8-0.8,1.5-1.9,1.5-3.5c0-1.2-0.4-2.3-1.5-3.5L202.4,155.6z M187.9,142.9
	c-2.7,4.2-6.1,7.7-10.4,10.4c-4.2,2.7-9.2,3.8-14.6,3.8c-5.4,0-10-1.2-14.6-3.8c-4.2-2.7-7.7-6.1-10.4-10.4
	c-2.7-4.2-3.8-9.2-3.8-14.6c0-5.4,1.2-10,3.8-14.6c2.7-4.2,6.1-7.7,10.4-10.4c4.2-2.7,9.2-3.8,14.6-3.8c5.4,0,10,1.2,14.6,3.8
	c4.2,2.7,7.7,6.1,10.4,10.4c2.7,4.2,3.8,9.2,3.8,14.6C191.7,134.1,190.5,138.7,187.9,142.9z"/>
<path id="Fill-4_11_" class="st0" d="M167.9,126.4c1.5,0.4,3.1,1.5,4.2,2.7c1.2,1.2,1.9,2.7,2.3,4.6c0.4,1.5,0.4,3.5-0.4,5
	c-0.8,1.9-1.9,3.5-3.5,4.6c-1.5,1.2-3.5,1.5-5.4,1.9v4.2c0,0.4,0,0.8-0.4,1.2c-0.4,0.4-0.4,0.4-0.8,0.4h-2.7c-0.4,0-0.8,0-0.8-0.4
	c-0.4-0.4-0.4-0.8-0.4-1.2v-4.2c-2.7,0-5-0.8-7.3-2.7c-0.4-0.4-0.4-0.8-0.4-1.2s0-0.8,0.4-1.2l2.7-3.1c0.4,0,0.4-0.4,0.8-0.4
	c0.4,0,0.8,0,0.8,0.4c0.8,0.4,1.9,0.8,2.7,0.8h5.4c0.8,0,1.2-0.4,1.5-0.8s0.8-1.2,0.8-1.9c0-0.4,0-1.2-0.4-1.5
	c-0.4-0.4-0.8-0.8-1.2-0.8l-8.4-2.7c-1.9-0.8-3.5-1.5-4.6-3.1c-1.2-1.5-1.9-3.1-2.3-5c0-1.9,0.4-3.5,1.2-5c0.8-1.5,1.9-2.7,3.5-3.8
	c1.5-0.8,3.1-1.5,4.6-1.5l0,0v-4.2c0-0.4,0-0.8,0.4-1.2c0.4-0.4,0.4-0.4,0.8-0.4h2.7c0.4,0,0.8,0,0.8,0.4c0.4,0.4,0.4,0.8,0.4,1.2
	v4.2c2.7,0,5,0.8,6.9,2.7c0.4,0.4,0.4,0.8,0.8,1.2c0.4,0.4,0,0.8-0.4,1.2l-2.7,3.1c-0.4,0-0.4,0.4-0.8,0.4c-0.4,0-0.8,0-0.8,0
	c-0.8-0.8-1.9-0.8-2.7-0.8h-5.4c-0.8,0-1.2,0.4-1.5,0.8c-0.4,0.4-0.8,1.2-0.8,1.9c0,0.4,0,1.2,0.4,1.5c0.4,0.4,0.8,0.8,1.2,0.8
	L167.9,126.4z"/>
<path class="st0" d="M218.9,88.1L218.9,88.1c-3.5-40.3-38.8-70.2-78.7-66.8c-22.6,1.9-43,14.2-55.3,33c-1.9,0-3.5,0-5.4,0
	c-31.1,0-56.4,25.3-56.4,56.4s25.3,56.4,56.4,56.4h44.5c-2.3-2.7-4.6-5.8-6.5-9.2c-0.8-1.2-1.5-2.7-1.9-3.8H80
	c-24.2,0-43.8-19.6-43.8-43.4s19.2-44.1,43.4-44.1c2.7,0,5,0.4,7.3,0.8c2.7,0.4,5.4-0.8,6.5-3.1c16.5-28.8,53-39.1,82.1-22.6
	c18.8,10.7,30.3,30.7,30.7,52.2c0,3.5,2.7,6.5,6.5,6.5c15-0.8,27.6,10.4,28.4,25.3c0.8,13.4-8.8,25.3-21.5,28l10.4,10
	c13.4-6.1,23-19.6,23-35.3C252.7,108,238.5,91.1,218.9,88.1z"/>
</svg>
